#!OML:ASF F:\VICON\USERDATA\INSTALL\rory3\rory3.ASF
:FULLY-SPECIFIED
:DEGREES
894
root -3.27202 17.3765 9.13279 12.2411 -4.37213 -1.50439
lowerback -1.62961 -0.223936 5.57873
upperback -4.30868 -0.275275 -0.131065
thorax -3.57065 -0.329262 -3.25721
lowerneck -12.0356 -4.49699 -10.2023
upperneck 19.235 -5.93751 8.54087
head 8.52572 -2.73478 3.92123
rclavicle -5.0131e-015 -1.81888e-014
rhumerus -50.0983 7.75775 -82.2805
rradius 50.9822
rwrist 10.5572
rhand -27.296 -51.5179
rfingers 7.12502
rthumb -0.705989 -81.4965
lclavicle -5.0131e-015 -1.81888e-014
lhumerus -42.8539 -12.511 81.1754
lradius 80.1435
lwrist -3.12914
lhand -34.2657 -45.7083
lfingers 7.12502
lthumb -7.43601 -15.859
rfemur -28.9409 10.9945 21.6481
rtibia 40.0042
rfoot -8.96436 -13.9162
rtoes -19.5985
lfemur -59.992 8.96214 -4.84419
ltibia 105.038
lfoot -16.5714 8.68984
ltoes -6.90082
895
root -3.22213 17.5712 9.13396 12.0159 -4.78873 -1.08935
lowerback -1.38704 -0.0298424 5.1123
upperback -4.46591 -0.00584457 -0.322327
thorax -3.84158 -0.192812 -3.19799
lowerneck -11.2625 -4.53777 -10.3352
upperneck 19.3814 -6.06126 8.57927
head 8.45145 -2.81886 3.95466
rclavicle 2.31398e-015 2.15184e-014
rhumerus -50.8384 8.3467 -82.5042
rradius 51.115
rwrist 10.8164
rhand -27.6106 -50.8832
rfingers 7.12502
rthumb -1.0098 -80.8605
lclavicle 2.31398e-015 2.15184e-014
lhumerus -43.3379 -13.2198 81.4435
lradius 79.8162
lwrist -2.31448
lhand -34.5902 -46.3635
lfingers 7.12502
lthumb -7.74927 -16.5255
rfemur -27.958 11.7783 20.785
rtibia 38.0991
rfoot -6.20367 -12.9859
rtoes -20.7401
lfemur -58.6193 8.79745 -5.04711
ltibia 103.034
lfoot -15.9026 9.38326
ltoes -6.73992
896
root -3.15427 17.792 9.19281 12.1384 -5.03852 -0.555089
lowerback -2.46716 0.170458 4.96668
upperback -4.4541 0.192094 -0.611412
thorax -3.1997 -0.0777966 -3.41657
lowerneck -10.4725 -4.57824 -10.4847
upperneck 19.359 -6.17617 8.62782
head 8.3176 -2.89929 3.99411
rclavicle 6.52417e-015 -1.70458e-014
rhumerus -51.2602 8.93417 -82.7402
rradius 50.9895
rwrist 11.0926
rhand -27.7243 -50.5462
rfingers 7.12502
rthumb -1.11967 -80.523
lclavicle 6.52417e-015 -1.70458e-014
lhumerus -43.561 -13.8596 81.6911
lradius 79.129
lwrist -1.84524
lhand -35.1001 -46.9982
lfingers 7.12502
lthumb -8.24138 -17.1789
rfemur -27.1779 11.666 19.755
rtibia 36.4057
rfoot -3.63958 -11.5579
rtoes -22.3691
lfemur -56.9922 8.0639 -5.67286
ltibia 100.705
lfoot -15.5212 10.8607
ltoes -7.35375
897
root -3.09043 17.9908 9.18031 12.2537 -4.97935 -0.508356
lowerback -2.33186 0.204479 5.08189
upperback -4.61831 0.24756 -0.649903
thorax -3.44279 -0.0644249 -3.52253
lowerneck -10.2449 -4.62615 -10.5797
upperneck 19.6599 -6.26007 8.59399
head 8.38807 -2.95557 3.99652
rclavicle -5.24139e-015 2.01269e-014
rhumerus -51.4749 9.6029 -82.9343
rradius 50.8774
rwrist 11.2711
rhand -27.5302 -50.273
rfingers 7.12502
rthumb -0.932214 -80.2507
lclavicle -5.24139e-015 2.01269e-014
lhumerus -43.6445 -14.2692 81.909
lradius 78.1628
lwrist -1.75184
lhand -35.5322 -47.4559
lfingers 7.12502
lthumb -8.65834 -17.6534
rfemur -26.8489 11.3763 19.3698
rtibia 34.96
rfoot -0.606746 -10.246
rtoes -23.068
lfemur -56.1679 7.54487 -5.62247
ltibia 98.5133
lfoot -14.8705 11.7687
ltoes -7.77454
898
root -3.02913 18.1851 9.18558 12.3168 -5.45112 -0.483216
lowerback -2.25514 0.34485 4.9954
upperback -4.74862 0.443064 -0.615222
thorax -3.60285 0.0300215 -3.44008
lowerneck -10.2286 -4.64979 -10.6071
upperneck 20.1271 -6.2678 8.35675
head 8.53747 -2.98539 3.92535
rclavicle -2.70844e-015 -4.37326e-015
rhumerus -51.7342 10.4772 -83.1436
rradius 50.8056
rwrist 11.2724
rhand -27.7851 -49.3942
rfingers 7.12502
rthumb -1.17841 -79.3707
lclavicle -2.70844e-015 -4.37326e-015
lhumerus -43.9095 -14.4161 82.1751
lradius 77.2029
lwrist -1.70553
lhand -35.6236 -47.1646
lfingers 7.12502
lthumb -8.7466 -17.3659
rfemur -26.6021 11.2923 18.99
rtibia 33.6446
rfoot 2.62196 -9.11186
rtoes -22.344
lfemur -54.9169 7.56409 -5.63775
ltibia 96.1598
lfoot -14.3502 12.5981
ltoes -7.23605
899
root -2.95806 18.3623 9.19303 12.5438 -5.97539 -0.479328
lowerback -2.47809 0.537203 5.00781
upperback -4.87226 0.690423 -0.608691
thorax -3.5824 0.151306 -3.44049
lowerneck -10.7103 -4.8426 -10.153
upperneck 21.1074 -6.41936 7.3888
head 8.93145 -3.10713 3.50065
rclavicle 5.0628e-015 -1.38155e-014
rhumerus -51.8895 11.2785 -83.3814
rradius 50.6555
rwrist 11.0853
rhand -28.1478 -48.645
rfingers 7.12502
rthumb -1.52869 -78.6193
lclavicle 5.0628e-015 -1.38155e-014
lhumerus -44.2657 -14.5013 82.4491
lradius 76.3152
lwrist -1.67462
lhand -35.3855 -46.6341
lfingers 7.12502
lthumb -8.51679 -16.8259
rfemur -26.6986 10.8713 18.623
rtibia 32.6121
rfoot 5.33624 -8.1322
rtoes -20.9355
lfemur -53.7571 7.59526 -5.73218
ltibia 93.8275
lfoot -13.8953 13.4785
ltoes -6.21045
900
root -2.88186 18.54 9.19655 12.835 -6.38327 -0.590074
lowerback -2.75688 0.699779 5.22746
upperback -4.96133 0.893789 -0.578683
thorax -3.49803 0.246097 -3.53061
lowerneck -12.4489 -5.30511 -9.11884
upperneck 23.1729 -6.76174 5.43505
head 9.91126 -3.35655 2.58529
rclavicle -1.33558e-016 -1.63003e-014
rhumerus -51.8889 11.9697 -83.5505
rradius 50.5318
rwrist 10.82
rhand -27.6819 -48.3499
rfingers 7.12502
rthumb -1.07872 -78.3269
lclavicle -1.33558e-016 -1.63003e-014
lhumerus -44.6659 -14.4057 82.658
lradius 75.618
lwrist -1.74044
lhand -35.0559 -46.5502
lfingers 7.12502
lthumb -8.19876 -16.7293
rfemur -26.9692 10.0321 18.4827
rtibia 31.8957
rfoot 7.58557 -7.14507
rtoes -19.3802
lfemur -52.6363 7.56583 -5.75003
ltibia 91.4127
lfoot -13.2391 14.3962
ltoes -5.82217
901
root -2.8111 18.7035 9.19319 13.1034 -6.77817 -0.743163
lowerback -3.00867 0.799218 5.35647
upperback -4.98728 1.01355 -0.486168
thorax -3.37182 0.306119 -3.50344
lowerneck -12.2317 -5.17119 -8.96063
upperneck 23.2697 -6.56517 5.16601
head 9.87266 -3.28568 2.49559
rclavicle -4.98204e-015 -2.61402e-014
rhumerus -51.8219 12.6181 -83.6828
rradius 50.5037
rwrist 10.6574
rhand -27.2726 -47.8688
rfingers 7.12502
rthumb -0.683409 -77.8475
lclavicle -4.98204e-015 -2.61402e-014
lhumerus -44.8985 -14.0983 82.7268
lradius 74.7916
lwrist -1.81806
lhand -34.6008 -46.4222
lfingers 7.12502
lthumb -7.75945 -16.5846
rfemur -27.4434 9.27235 18.4684
rtibia 31.6846
rfoot 9.69949 -6.69588
rtoes -17.6643
lfemur -51.5689 7.58247 -5.68351
ltibia 88.9733
lfoot -12.2187 15.1316
ltoes -6.08138
902
root -2.74932 18.8396 9.16645 13.8708 -6.93106 -0.783454
lowerback -3.81838 0.796152 5.2086
upperback -4.96465 0.963916 -0.368882
thorax -2.90045 0.301814 -3.28739
lowerneck -12.5062 -5.09839 -8.75135
upperneck 23.3989 -6.41835 4.88353
head 9.94192 -3.22586 2.37579
rclavicle 3.10104e-014 -1.03368e-014
rhumerus -51.3866 13.274 -83.8036
rradius 50.4745
rwrist 10.3022
rhand -27.4845 -47.3642
rfingers 7.12502
rthumb -0.888035 -77.342
lclavicle 3.10104e-014 -1.03368e-014
lhumerus -44.5325 -13.6743 82.6376
lradius 73.5016
lwrist -1.96667
lhand -34.2486 -46.2672
lfingers 7.12502
lthumb -7.41949 -16.4173
rfemur -28.7414 8.49417 18.3764
rtibia 32.1118
rfoot 10.9948 -7.19085
rtoes -17.3772
lfemur -51.4348 7.47226 -5.70021
ltibia 86.6329
lfoot -10.8765 15.5745
ltoes -6.17773
